<svg xmlns="http://www.w3.org/2000/svg" viewBox="0 0 600 260" width="600" height="260"><style>text{font-family:-apple-system,BlinkMacSystemFont,"Segoe UI",Helvetica,Arial,sans-serif;fill:#e6edf3}.label{font-size:13px}.count{font-size:12px;fill:#8b949e}.title{font-size:16px;font-weight:600}</style><rect width="600" height="260" rx="10" fill="#0d1117" stroke="#30363d" stroke-width="1"/><text x="300" y="30" text-anchor="middle" class="title">Extension Categories</text><path d="M150.0,150.0 L150.0,60.0 A90,90 0 0,1 176.3,236.1 Z" fill="#a855f7" opacity="0.9"/><path d="M150.0,150.0 L176.3,236.1 A90,90 0 0,1 68.9,111.1 Z" fill="#22c55e" opacity="0.9"/><path d="M150.0,150.0 L68.9,111.1 A90,90 0 0,1 102.7,73.4 Z" fill="#f97316" opacity="0.9"/><path d="M150.0,150.0 L102.7,73.4 A90,90 0 0,1 150.0,60.0 Z" fill="#64748b" opacity="0.9"/><rect x="310" y="64" width="14" height="14" rx="3" fill="#a855f7" opacity="0.9"/><text x="332" y="75" class="label">Themes</text><text x="332" y="93" class="count">509 (45%)</text><rect x="310" y="110" width="14" height="14" rx="3" fill="#22c55e" opacity="0.9"/><text x="332" y="121" class="label">Languages</text><text x="332" y="139" class="count">414 (37%)</text><rect x="310" y="156" width="14" height="14" rx="3" fill="#f97316" opacity="0.9"/><text x="332" y="167" class="label">Tools</text><text x="332" y="185" class="count">102 (9%)</text><rect x="310" y="202" width="14" height="14" rx="3" fill="#64748b" opacity="0.9"/><text x="332" y="213" class="label">Other</text><text x="332" y="231" class="count">99 (9%)</text></svg>