<svg xmlns="http://www.w3.org/2000/svg" viewBox="0 0 600 550" width="600" height="550"><style>text{font-family:-apple-system,BlinkMacSystemFont,"Segoe UI",Helvetica,Arial,sans-serif;fill:#e6edf3}.name{font-size:12px}.stars{font-size:11px;fill:#8b949e}.title{font-size:16px;font-weight:600}</style><rect width="600" height="550" rx="10" fill="#0d1117" stroke="#30363d" stroke-width="1"/><text x="300" y="30" text-anchor="middle" class="title">Top 15 Extensions by Stars</text><text x="190" y="66.8" text-anchor="end" class="name">Mistral Vibe</text><rect x="200" y="50.0" width="320.0" height="24" rx="4" fill="#64748b" opacity="0.85"/><text x="526.0" y="66.8" class="stars">3.8k</text><text x="190" y="98.8" text-anchor="end" class="name">Aura Theme</text><rect x="200" y="82.0" width="314.5" height="24" rx="4" fill="#a855f7" opacity="0.85"/><text x="520.5" y="98.8" class="stars">3.8k</text><text x="190" y="130.8" text-anchor="end" class="name">Flexoki Themes</text><rect x="200" y="114.0" width="267.3" height="24" rx="4" fill="#a855f7" opacity="0.85"/><text x="473.3" y="130.8" class="stars">3.2k</text><text x="190" y="162.8" text-anchor="end" class="name">Clice</text><rect x="200" y="146.0" width="100.7" height="24" rx="4" fill="#22c55e" opacity="0.85"/><text x="306.7" y="162.8" class="stars">1.2k</text><text x="190" y="194.8" text-anchor="end" class="name">Veryl</text><rect x="200" y="178.0" width="76.8" height="24" rx="4" fill="#64748b" opacity="0.85"/><text x="282.8" y="194.8" class="stars">916</text><text x="190" y="226.8" text-anchor="end" class="name">Tombi</text><rect x="200" y="210.0" width="70.2" height="24" rx="4" fill="#f97316" opacity="0.85"/><text x="276.2" y="226.8" class="stars">838</text><text x="190" y="258.8" text-anchor="end" class="name">Catppuccin</text><rect x="200" y="242.0" width="63.9" height="24" rx="4" fill="#a855f7" opacity="0.85"/><text x="269.9" y="258.8" class="stars">763</text><text x="190" y="290.8" text-anchor="end" class="name">Biome</text><rect x="200" y="274.0" width="37.4" height="24" rx="4" fill="#22c55e" opacity="0.85"/><text x="243.4" y="290.8" class="stars">446</text><text x="190" y="322.8" text-anchor="end" class="name">Air</text><rect x="200" y="306.0" width="33.4" height="24" rx="4" fill="#64748b" opacity="0.85"/><text x="239.4" y="322.8" class="stars">398</text><text x="190" y="354.8" text-anchor="end" class="name">Discord Presence</text><rect x="200" y="338.0" width="32.5" height="24" rx="4" fill="#22c55e" opacity="0.85"/><text x="238.5" y="354.8" class="stars">388</text><text x="190" y="386.8" text-anchor="end" class="name">Catppuccin Blur</text><rect x="200" y="370.0" width="25.2" height="24" rx="4" fill="#a855f7" opacity="0.85"/><text x="231.2" y="386.8" class="stars">301</text><text x="190" y="418.8" text-anchor="end" class="name">Catppuccin Icons</text><rect x="200" y="402.0" width="18.1" height="24" rx="4" fill="#a855f7" opacity="0.85"/><text x="224.1" y="418.8" class="stars">216</text><text x="190" y="450.8" text-anchor="end" class="name">Oxc</text><rect x="200" y="434.0" width="17.5" height="24" rx="4" fill="#22c55e" opacity="0.85"/><text x="223.5" y="450.8" class="stars">209</text><text x="190" y="482.8" text-anchor="end" class="name">Postgres Context Server</text><rect x="200" y="466.0" width="16.3" height="24" rx="4" fill="#f97316" opacity="0.85"/><text x="222.3" y="482.8" class="stars">194</text><text x="190" y="514.8" text-anchor="end" class="name">tsgo</text><rect x="200" y="498.0" width="15.4" height="24" rx="4" fill="#f97316" opacity="0.85"/><text x="221.4" y="514.8" class="stars">184</text></svg>