<svg xmlns="http://www.w3.org/2000/svg" viewBox="0 0 600 550" width="600" height="550"><style>text{font-family:-apple-system,BlinkMacSystemFont,"Segoe UI",Helvetica,Arial,sans-serif;fill:#e6edf3}.name{font-size:12px}.stars{font-size:11px;fill:#8b949e}.title{font-size:16px;font-weight:600}</style><rect width="600" height="550" rx="10" fill="#0d1117" stroke="#30363d" stroke-width="1"/><text x="300" y="30" text-anchor="middle" class="title">Top 15 Extensions by Stars</text><text x="190" y="66.8" text-anchor="end" class="name">Mistral Vibe</text><rect x="200" y="50.0" width="320.0" height="24" rx="4" fill="#64748b" opacity="0.85"/><text x="526.0" y="66.8" class="stars">4.1k</text><text x="190" y="98.8" text-anchor="end" class="name">Aura Theme</text><rect x="200" y="82.0" width="291.6" height="24" rx="4" fill="#a855f7" opacity="0.85"/><text x="497.6" y="98.8" class="stars">3.8k</text><text x="190" y="130.8" text-anchor="end" class="name">Flexoki Themes</text><rect x="200" y="114.0" width="259.2" height="24" rx="4" fill="#a855f7" opacity="0.85"/><text x="465.2" y="130.8" class="stars">3.4k</text><text x="190" y="162.8" text-anchor="end" class="name">Bugstalker Dap</text><rect x="200" y="146.0" width="104.9" height="24" rx="4" fill="#64748b" opacity="0.85"/><text x="310.9" y="162.8" class="stars">1.4k</text><text x="190" y="194.8" text-anchor="end" class="name">Clice</text><rect x="200" y="178.0" width="94.5" height="24" rx="4" fill="#22c55e" opacity="0.85"/><text x="300.5" y="194.8" class="stars">1.2k</text><text x="190" y="226.8" text-anchor="end" class="name">Lisette</text><rect x="200" y="210.0" width="72.4" height="24" rx="4" fill="#22c55e" opacity="0.85"/><text x="278.4" y="226.8" class="stars">938</text><text x="190" y="258.8" text-anchor="end" class="name">Veryl</text><rect x="200" y="242.0" width="72.1" height="24" rx="4" fill="#64748b" opacity="0.85"/><text x="278.1" y="258.8" class="stars">934</text><text x="190" y="290.8" text-anchor="end" class="name">Tombi</text><rect x="200" y="274.0" width="70.5" height="24" rx="4" fill="#f97316" opacity="0.85"/><text x="276.5" y="290.8" class="stars">913</text><text x="190" y="322.8" text-anchor="end" class="name">Catppuccin</text><rect x="200" y="306.0" width="63.1" height="24" rx="4" fill="#a855f7" opacity="0.85"/><text x="269.1" y="322.8" class="stars">817</text><text x="190" y="354.8" text-anchor="end" class="name">Biome</text><rect x="200" y="338.0" width="35.6" height="24" rx="4" fill="#22c55e" opacity="0.85"/><text x="241.6" y="354.8" class="stars">461</text><text x="190" y="386.8" text-anchor="end" class="name">Air</text><rect x="200" y="370.0" width="32.1" height="24" rx="4" fill="#64748b" opacity="0.85"/><text x="238.1" y="386.8" class="stars">416</text><text x="190" y="418.8" text-anchor="end" class="name">Discord Presence</text><rect x="200" y="402.0" width="31.7" height="24" rx="4" fill="#22c55e" opacity="0.85"/><text x="237.7" y="418.8" class="stars">411</text><text x="190" y="450.8" text-anchor="end" class="name">Catppuccin Blur</text><rect x="200" y="434.0" width="24.0" height="24" rx="4" fill="#a855f7" opacity="0.85"/><text x="230.0" y="450.8" class="stars">311</text><text x="190" y="482.8" text-anchor="end" class="name">Csskit Lsp</text><rect x="200" y="466.0" width="22.5" height="24" rx="4" fill="#f97316" opacity="0.85"/><text x="228.5" y="482.8" class="stars">291</text><text x="190" y="514.8" text-anchor="end" class="name">Oxc</text><rect x="200" y="498.0" width="19.1" height="24" rx="4" fill="#22c55e" opacity="0.85"/><text x="225.1" y="514.8" class="stars">247</text></svg>