<svg xmlns="http://www.w3.org/2000/svg" viewBox="0 0 600 550" width="600" height="550"><style>text{font-family:-apple-system,BlinkMacSystemFont,"Segoe UI",Helvetica,Arial,sans-serif;fill:#e6edf3}.name{font-size:12px}.stars{font-size:11px;fill:#8b949e}.title{font-size:16px;font-weight:600}</style><rect width="600" height="550" rx="10" fill="#0d1117" stroke="#30363d" stroke-width="1"/><text x="300" y="30" text-anchor="middle" class="title">Top 15 Extensions by Stars</text><text x="190" y="66.8" text-anchor="end" class="name">Fallow</text><rect x="200" y="50.0" width="320.0" height="24" rx="4" fill="#f97316" opacity="0.85"/><text x="526.0" y="66.8" class="stars">4.1k</text><text x="190" y="98.8" text-anchor="end" class="name">Aura Theme</text><rect x="200" y="82.0" width="298.0" height="24" rx="4" fill="#a855f7" opacity="0.85"/><text x="504.0" y="98.8" class="stars">3.8k</text><text x="190" y="130.8" text-anchor="end" class="name">Flexoki Themes</text><rect x="200" y="114.0" width="279.6" height="24" rx="4" fill="#a855f7" opacity="0.85"/><text x="485.6" y="130.8" class="stars">3.6k</text><text x="190" y="162.8" text-anchor="end" class="name">Civet</text><rect x="200" y="146.0" width="153.0" height="24" rx="4" fill="#64748b" opacity="0.85"/><text x="359.0" y="162.8" class="stars">1.9k</text><text x="190" y="194.8" text-anchor="end" class="name">Lisette</text><rect x="200" y="178.0" width="111.1" height="24" rx="4" fill="#22c55e" opacity="0.85"/><text x="317.1" y="194.8" class="stars">1.4k</text><text x="190" y="226.8" text-anchor="end" class="name">Bugstalker Dap</text><rect x="200" y="210.0" width="107.6" height="24" rx="4" fill="#64748b" opacity="0.85"/><text x="313.6" y="226.8" class="stars">1.4k</text><text x="190" y="258.8" text-anchor="end" class="name">Clice</text><rect x="200" y="242.0" width="99.0" height="24" rx="4" fill="#22c55e" opacity="0.85"/><text x="305.0" y="258.8" class="stars">1.3k</text><text x="190" y="290.8" text-anchor="end" class="name">Tombi</text><rect x="200" y="274.0" width="80.3" height="24" rx="4" fill="#f97316" opacity="0.85"/><text x="286.3" y="290.8" class="stars">1.0k</text><text x="190" y="322.8" text-anchor="end" class="name">Veryl</text><rect x="200" y="306.0" width="76.6" height="24" rx="4" fill="#64748b" opacity="0.85"/><text x="282.6" y="322.8" class="stars">977</text><text x="190" y="354.8" text-anchor="end" class="name">Catppuccin</text><rect x="200" y="338.0" width="67.8" height="24" rx="4" fill="#a855f7" opacity="0.85"/><text x="273.8" y="354.8" class="stars">864</text><text x="190" y="386.8" text-anchor="end" class="name">Syntaqlite Lsp</text><rect x="200" y="370.0" width="62.1" height="24" rx="4" fill="#64748b" opacity="0.85"/><text x="268.1" y="386.8" class="stars">792</text><text x="190" y="418.8" text-anchor="end" class="name">Biome</text><rect x="200" y="402.0" width="38.1" height="24" rx="4" fill="#22c55e" opacity="0.85"/><text x="244.1" y="418.8" class="stars">486</text><text x="190" y="450.8" text-anchor="end" class="name">Discord Presence</text><rect x="200" y="434.0" width="34.7" height="24" rx="4" fill="#22c55e" opacity="0.85"/><text x="240.7" y="450.8" class="stars">442</text><text x="190" y="482.8" text-anchor="end" class="name">Air</text><rect x="200" y="466.0" width="34.4" height="24" rx="4" fill="#64748b" opacity="0.85"/><text x="240.4" y="482.8" class="stars">439</text><text x="190" y="514.8" text-anchor="end" class="name">Agnix</text><rect x="200" y="498.0" width="26.8" height="24" rx="4" fill="#f97316" opacity="0.85"/><text x="232.8" y="514.8" class="stars">341</text></svg>